# xmcd CD database file
#
# Track frame offsets:
#	150
#	15371
#	26137
#	42086
#	62058
#	75199
#	89472
#	100381
#	114219
#	134034
#	157892
#	172942
#	190973
#
# Disc length: 2603 seconds
#
# Revision: 0
# Processed by: cddbd v1.5.2PL0 Copyright (c) Steve Scherf et al.
# Submitted via: CDex 1.51
#
DISCID=970a290d
DTITLE=Philippe Lavil  - Calypso
DYEAR=2000
DGENRE=Merengue
TTITLE0=Philippe Lavil - 01-Le paradis c'est fini (Jean and Dinah)
TTITLE1=Philippe Lavil - 02-Big money
TTITLE2=Philippe Lavil  - 03-Quand on revient (Kingston market)
TTITLE3=Philippe Lavil - 04-Même si
TTITLE4=Philippe Lavil - 05-Plus de postes, plus d'hôpitaux
TTITLE5=Philippe Lavil - 06-Mwen ka sonjé (Land of sea and sun)
TTITLE6=Philippe Lavil - 07-La cigale et la fourmi
TTITLE7=Philippe Lavil - 08-Du bambou (Big bamboo)
TTITLE8=Philippe Lavil - 09-Himbayo
TTITLE9=Philippe Lavil - 10-Coffee street
TTITLE10=Philippe Lavil - 11-So calypso
TTITLE11=Philippe Lavil - 12-Kings of calypso
TTITLE12=Philippe Lavil - 13-Goodbye tobago
EXTD=YEAR: 2000
EXTT0=
EXTT1=
EXTT2=
EXTT3=
EXTT4=
EXTT5=
EXTT6=
EXTT7=
EXTT8=
EXTT9=
EXTT10=
EXTT11=
EXTT12=
PLAYORDER=
